<?xml version="1.0" encoding="utf-8"?>
<!-- Generator: Adobe Illustrator 27.5.0, SVG Export Plug-In . SVG Version: 6.00 Build 0)  -->
<svg version="1.1" xmlns="http://www.w3.org/2000/svg" xmlns:xlink="http://www.w3.org/1999/xlink" x="0px" y="0px"
	 viewBox="0 0 500 500" style="enable-background:new 0 0 500 500;" xml:space="preserve">
<g id="BACKGROUND">
	<g id="XMLID_119_">
		<g id="XMLID_123_">
			<path id="XMLID_121_" style="fill:#F6F6F6;" d="M111.098,159.493H67.455c-1.203,0-2.179-0.975-2.179-2.179v-13.128
				c0-1.204,0.976-2.179,2.179-2.179h43.643c1.203,0,2.179,0.975,2.179,2.179v13.128
				C113.276,158.518,112.301,159.493,111.098,159.493z"/>
			<path id="XMLID_125_" style="fill:#F6F6F6;" d="M136.598,178.66H92.955c-1.203,0-2.179-0.976-2.179-2.179v-13.129
				c0-1.203,0.976-2.179,2.179-2.179h43.643c1.203,0,2.179,0.976,2.179,2.179v13.129C138.776,177.684,137.801,178.66,136.598,178.66
				z"/>
			<path id="XMLID_131_" style="fill:#F6F6F6;" d="M186.848,139.826h-43.643c-1.203,0-2.179-0.976-2.179-2.179v-13.129
				c0-1.203,0.976-2.179,2.179-2.179h43.643c1.203,0,2.179,0.976,2.179,2.179v13.129
				C189.026,138.851,188.051,139.826,186.848,139.826z"/>
			<path id="XMLID_132_" style="fill:#F6F6F6;" d="M162.848,120.66h-43.643c-1.203,0-2.179-0.976-2.179-2.179v-13.129
				c0-1.203,0.976-2.179,2.179-2.179h43.643c1.203,0,2.179,0.976,2.179,2.179v13.129C165.026,119.684,164.051,120.66,162.848,120.66
				z"/>
			<path id="XMLID_129_" style="fill:#F6F6F6;" d="M136.598,139.826H92.955c-1.203,0-2.179-0.976-2.179-2.179v-13.129
				c0-1.203,0.976-2.179,2.179-2.179h43.643c1.203,0,2.179,0.976,2.179,2.179v13.129
				C138.776,138.851,137.801,139.826,136.598,139.826z"/>
			<path id="XMLID_135_" style="fill:#F6F6F6;" d="M86.566,139.826H42.924c-1.203,0-2.179-0.976-2.179-2.179v-13.129
				c0-1.203,0.976-2.179,2.179-2.179h43.643c1.203,0,2.179,0.976,2.179,2.179v13.129C88.745,138.851,87.77,139.826,86.566,139.826z"
				/>
			<path id="XMLID_138_" style="fill:#F6F6F6;" d="M137.598,101.493H93.955c-1.203,0-2.179-0.975-2.179-2.179V86.186
				c0-1.204,0.976-2.179,2.179-2.179h43.643c1.203,0,2.179,0.975,2.179,2.179v13.128
				C139.776,100.518,138.801,101.493,137.598,101.493z"/>
			<path id="XMLID_124_" style="fill:#F6F6F6;" d="M161.598,159.493h-43.643c-1.203,0-2.179-0.975-2.179-2.179v-13.128
				c0-1.204,0.976-2.179,2.179-2.179h43.643c1.203,0,2.179,0.975,2.179,2.179v13.128
				C163.776,158.518,162.801,159.493,161.598,159.493z"/>
			<path id="XMLID_134_" style="fill:#F6F6F6;" d="M112.598,120.66H68.955c-1.203,0-2.179-0.976-2.179-2.179v-13.129
				c0-1.203,0.976-2.179,2.179-2.179h43.643c1.203,0,2.179,0.976,2.179,2.179v13.129C114.776,119.684,113.801,120.66,112.598,120.66
				z"/>
		</g>
		<g id="XMLID_143_">
			<path id="XMLID_167_" style="fill:#F6F6F6;" d="M395.201,238.226h-43.643c-1.203,0-2.179-0.976-2.179-2.179v-13.128
				c0-1.203,0.976-2.179,2.179-2.179h43.643c1.203,0,2.179,0.976,2.179,2.179v13.128C397.38,237.25,396.404,238.226,395.201,238.226
				z"/>
			<path id="XMLID_166_" style="fill:#F6F6F6;" d="M420.701,257.393h-43.643c-1.203,0-2.179-0.976-2.179-2.179v-13.129
				c0-1.203,0.976-2.178,2.179-2.178h43.643c1.203,0,2.179,0.975,2.179,2.178v13.129
				C422.88,256.417,421.904,257.393,420.701,257.393z"/>
			<path id="XMLID_164_" style="fill:#F6F6F6;" d="M470.951,218.559h-43.643c-1.203,0-2.179-0.975-2.179-2.179v-13.128
				c0-1.203,0.976-2.179,2.179-2.179h43.643c1.203,0,2.179,0.976,2.179,2.179v13.128
				C473.13,217.583,472.154,218.559,470.951,218.559z"/>
			<path id="XMLID_162_" style="fill:#F6F6F6;" d="M420.701,218.559h-43.643c-1.203,0-2.179-0.975-2.179-2.179v-13.128
				c0-1.203,0.976-2.179,2.179-2.179h43.643c1.203,0,2.179,0.976,2.179,2.179v13.128
				C422.88,217.583,421.904,218.559,420.701,218.559z"/>
			<path id="XMLID_160_" style="fill:#F6F6F6;" d="M421.701,180.226h-43.643c-1.203,0-2.179-0.976-2.179-2.179v-13.128
				c0-1.203,0.976-2.179,2.179-2.179h43.643c1.203,0,2.179,0.976,2.179,2.179v13.128C423.88,179.25,422.904,180.226,421.701,180.226
				z"/>
			<path id="XMLID_158_" style="fill:#F6F6F6;" d="M445.701,238.226h-43.643c-1.203,0-2.179-0.976-2.179-2.179v-13.128
				c0-1.203,0.976-2.179,2.179-2.179h43.643c1.203,0,2.179,0.976,2.179,2.179v13.128C447.88,237.25,446.904,238.226,445.701,238.226
				z"/>
			<path id="XMLID_156_" style="fill:#F6F6F6;" d="M396.701,199.392h-43.643c-1.203,0-2.179-0.976-2.179-2.179v-13.128
				c0-1.203,0.976-2.178,2.179-2.178h43.643c1.203,0,2.179,0.975,2.179,2.178v13.128
				C398.88,198.417,397.904,199.392,396.701,199.392z"/>
		</g>
	</g>
	<g id="XMLID_128_">
		
			<line id="XMLID_122_" style="fill:none;stroke:#DADADA;stroke-width:2;stroke-miterlimit:10;" x1="446.24" y1="399.138" x2="46" y2="399.138"/>
		<g id="XMLID_560_">
			<g id="XMLID_580_">
				<path id="XMLID_621_" style="fill:#D6EF8F;" d="M421.244,357.413c0,0,3.267-35.386,25.042-40.829
					c20.498-5.125,44.854-2.531,51.275-51.248c1.222-9.274-4.594-18.34-13.695-20.502c-6.481-1.54-14.868,0.101-23.971,10.779
					c-7.076,8.302,1.089,23.408-34.296,35.385c-35.386,11.977-34.841,48.451-34.841,66.416"/>
				
					<path id="XMLID_581_" style="fill:none;stroke:#FFFFFF;stroke-width:3;stroke-linecap:round;stroke-linejoin:round;stroke-miterlimit:10;" d="
					M405.639,357.413c0,0-0.654-30.81,14.154-42.1c18.938-14.439,59.77-14.439,55.891-47.906"/>
			</g>
			
				<rect id="XMLID_576_" x="390.758" y="357.413" transform="matrix(-1 -1.224647e-16 1.224647e-16 -1 812.0019 718.0928)" style="fill:#F6F6F6;" width="30.486" height="3.267"/>
			
				<rect id="XMLID_569_" x="390.758" y="363.22" transform="matrix(-1 -1.224647e-16 1.224647e-16 -1 812.0019 729.706)" style="fill:#F6F6F6;" width="30.486" height="3.267"/>
			
				<rect id="XMLID_562_" x="390.758" y="369.026" transform="matrix(-1 -1.224647e-16 1.224647e-16 -1 812.0019 767.0869)" style="fill:#F6F6F6;" width="30.486" height="29.034"/>
		</g>
	</g>
</g>
<g id="OBJECTS">
	<g id="XMLID_127_">
		<g id="XMLID_3_">
			<g id="XMLID_149_">
				<path id="XMLID_152_" style="fill:#E94E1B;" d="M157.608,348.694L135,421.436l0,0c15.971,6.01,33.581,6.01,49.553,0l0,0
					l-22.608-72.742C161.283,346.565,158.27,346.565,157.608,348.694z"/>
			</g>
			<polygon id="XMLID_126_" style="opacity:0.52;fill:#E94E1B;" points="161.976,348.797 171.807,424.905 184.553,421.436 			"/>
		</g>
		<g id="XMLID_154_">
			<g id="XMLID_163_">
				<path id="XMLID_169_" style="fill:#E94E1B;" d="M364.337,367.063l24.315,78.235l0,0c-17.178,6.463-36.118,6.463-53.295,0l0,0
					l24.315-78.235C360.385,364.773,363.625,364.773,364.337,367.063z"/>
			</g>
			<polygon id="XMLID_161_" style="opacity:0.52;fill:#E94E1B;" points="359.639,367.173 349.065,449.028 335.357,445.298 			"/>
		</g>
	</g>
	<g id="XMLID_140_">
		<path id="XMLID_120_" style="fill:#EDEDED;" d="M352.103,464.721c0,3.269-41.909,5.918-93.606,5.918
			c-51.697,0-93.605-2.649-93.605-5.918c0-3.268,41.909-5.917,93.605-5.917C310.194,458.804,352.103,461.453,352.103,464.721z"/>
		<g id="XMLID_118_">
			<g id="XMLID_116_">
				<g id="XMLID_110_">
					<path id="XMLID_91_" style="fill:#9D9D9C;" d="M330.997,254.037L330.997,254.037c-0.626,0.232-1.321-0.088-1.554-0.714
						l-2.659-7.166l2.266-0.841l2.659,7.166C331.941,253.109,331.623,253.805,330.997,254.037z"/>
					<path id="XMLID_97_" style="fill:#9D9D9C;" d="M336.501,251.94L336.501,251.94c-0.627,0.232-1.322-0.087-1.554-0.713
						l-2.661-7.166l2.267-0.841l2.66,7.166C337.445,251.013,337.126,251.709,336.501,251.94z"/>
					<path id="XMLID_101_" style="fill:#B2B2B2;" d="M331.391,254.037L331.391,254.037c-0.625,0.232-1.321-0.088-1.554-0.714
						l-2.659-7.166l2.267-0.841l2.659,7.166C332.336,253.109,332.018,253.805,331.391,254.037z"/>
					<path id="XMLID_99_" style="fill:#B2B2B2;" d="M336.895,251.94L336.895,251.94c-0.626,0.232-1.321-0.087-1.554-0.713
						l-2.66-7.166l2.267-0.841l2.66,7.166C337.84,251.013,337.52,251.709,336.895,251.94z"/>
					<g id="XMLID_33_">
						<g id="XMLID_34_">
							<path id="XMLID_192_" style="fill:#33931C;" d="M225.597,201.993c0,8.335-5.891,15.092-13.157,15.092
								c-7.267,0-13.157-6.757-13.157-15.092c0-8.334,5.891-15.092,13.157-15.092C219.706,186.901,225.597,193.659,225.597,201.993z
								"/>
						</g>
						<g id="XMLID_31_">
							<g id="XMLID_44_">
								<path id="XMLID_88_" style="fill:#FCFCFC;" d="M197.396,196.545c-2.782,7.217-0.349,14.874,5.436,17.104
									c5.784,2.23,12.728-1.813,15.51-9.03c2.782-7.217,0.349-14.875-5.435-17.105
									C207.123,185.285,200.179,189.328,197.396,196.545z"/>
							</g>
							<g id="XMLID_35_">
								<path id="XMLID_87_" style="fill:#020202;" d="M198.546,194.615c-3.239,5.051-2.583,11.25,1.464,13.846
									c4.048,2.595,9.955,0.605,13.194-4.445c3.239-5.051,2.583-11.249-1.464-13.846
									C207.692,187.574,201.785,189.564,198.546,194.615z"/>
							</g>
							<g id="XMLID_32_">
								<path id="XMLID_86_" style="fill:#FCFCFC;" d="M208.159,190.025c-1.23,1.919-0.982,4.273,0.556,5.259
									c1.538,0.986,3.781,0.23,5.012-1.688c1.23-1.919,0.981-4.273-0.557-5.259C211.634,187.351,209.39,188.106,208.159,190.025z"
									/>
							</g>
						</g>
						<g id="XMLID_10_">
							<path id="XMLID_183_" style="fill:#33931C;" d="M264.527,280c0,0,21.181-88.635-30.258-87.564
								c-51.439,1.072-49.644,44.175-40.187,54.654c7.873,8.725,38.043,30.006,38.043,46.08
								C232.125,309.246,264.527,280,264.527,280z"/>
						</g>
						<g id="XMLID_16_">
							<path id="XMLID_181_" style="fill:#33931C;" d="M216.989,297.563c0,0-48.833,33.861-54.932,53.054
								c-4.48,14.101,2.757,28.648,13.889,35.615c6.288,3.936,14.498,2.793,19.48-2.704l8.725-9.626L216.989,297.563z"/>
						</g>
						<g id="XMLID_1_">
							<g id="XMLID_7_">
								<path id="XMLID_179_" style="fill:#33931C;" d="M216.64,416.259c0,0-13.109,16.708-14.943,42.122
									c-0.28,3.893,2.117,7.541,5.872,8.605c4.309,1.222,10.879,1.932,19.609-0.357c3.932-1.03,6.521-4.815,6.085-8.856
									c-0.893-8.276-1.035-22.357,6.844-29.347L216.64,416.259z"/>
							</g>
							<g id="XMLID_8_">
								<path id="XMLID_85_" style="fill:#97C91F;" d="M202.794,463.215L202.794,463.215c3.14-4.897,10.666-3.34,11.604,2.401
									l0.405,2.48C214.803,468.097,205.895,468.96,202.794,463.215z"/>
							</g>
							<g id="XMLID_9_">
								<path id="XMLID_175_" style="fill:#97C91F;" d="M214.803,468.097l0.622-1.499c1.893-4.561,8.077-5.232,10.904-1.184
									l0.849,1.215C227.178,466.629,219.905,468.44,214.803,468.097z"/>
							</g>
						</g>
						<g id="XMLID_11_">
							<g id="XMLID_20_">
								<path id="XMLID_172_" style="fill:#33931C;" d="M296.321,416.259c0,0,13.109,16.708,14.942,42.122
									c0.281,3.893-2.116,7.541-5.871,8.605c-4.31,1.222-10.879,1.932-19.609-0.357c-3.932-1.03-6.522-4.815-6.085-8.856
									c0.894-8.276,1.035-22.357-6.845-29.347L296.321,416.259z"/>
							</g>
							<g id="XMLID_14_">
								<path id="XMLID_82_" style="fill:#97C91F;" d="M310.168,463.215L310.168,463.215c-3.141-4.897-10.667-3.34-11.604,2.401
									l-0.404,2.48C298.159,468.097,307.065,468.96,310.168,463.215z"/>
							</g>
							<g id="XMLID_12_">
								<path id="XMLID_168_" style="fill:#97C91F;" d="M298.159,468.097l-0.623-1.499c-1.892-4.561-8.076-5.232-10.903-1.184
									l-0.85,1.215C285.783,466.629,293.056,468.44,298.159,468.097z"/>
							</g>
						</g>
						<g id="XMLID_4_">
							<path id="XMLID_165_" style="fill:#487717;" d="M268.711,276.565c0,0,41.783-6.634,62.526,17.952
								c20.744,24.585,13.061,70.683,13.061,70.683l-58.941-60.722L268.711,276.565z"/>
						</g>
						<g id="XMLID_15_">
							<path id="XMLID_84_" style="fill:#95C11F;" d="M343.092,322.585l-13.044-2.069c-3.973-0.629-7.231-3.391-8.504-7.207
								l-3.897-11.695c-1.066-3.2-4.05-5.352-7.424-5.352h-8.398c-4.525,0-8.588-2.862-10.109-7.125l-4.34-12.156l2.741-0.978
								l4.339,12.156c1.109,3.107,4.07,5.193,7.369,5.193h8.398c4.628,0,8.721,2.95,10.185,7.341l3.898,11.695
								c0.927,2.781,3.302,4.795,6.197,5.253l13.046,2.069L343.092,322.585z"/>
						</g>
						<g id="XMLID_19_">
							<path id="XMLID_83_" style="fill:#95C11F;" d="M344.243,340.499l-17.748-2.815c-5.212-0.826-9.486-4.448-11.154-9.454
								l-5.304-15.912c-1.522-4.568-5.782-7.639-10.599-7.639h-11.427c-5.936,0-11.266-3.756-13.262-9.347l-5.904-16.54l2.741-0.978
								l5.904,16.539c1.583,4.436,5.811,7.416,10.521,7.416h11.427c6.071,0,11.439,3.869,13.359,9.628l5.304,15.912
								c1.324,3.972,4.714,6.846,8.849,7.501l17.75,2.814L344.243,340.499z"/>
						</g>
						<g id="XMLID_5_">
							<path id="XMLID_159_" style="fill:#30510A;" d="M270.216,278.079c0,0,21.159,37.983,50.61,56.905
								c29.452,18.92,34.304,43.181-2.183,57.557l-45.003-98.051L270.216,278.079z"/>
						</g>
						<g id="XMLID_6_">
							<path id="XMLID_157_" style="fill:#203801;" d="M262.533,280c0,0,21.159,37.983,50.61,56.904
								c29.451,18.921,34.304,43.183-2.183,57.558l-45.003-98.051L262.533,280z"/>
						</g>
						<g id="XMLID_18_">
							<path id="XMLID_155_" style="fill:#33931C;" d="M280.82,309.089c0,0,7.56-19.4-3.242-44.992
								c-10.801-25.592,18.878-42.373,34.519-35.41c15.64,6.963,13.577,41.747,7.132,55.987
								c-6.444,14.24-19.935,33.973-24.875,35.422C289.415,321.545,280.603,319.031,280.82,309.089z"/>
						</g>
						<g id="XMLID_26_">
							<ellipse id="XMLID_153_" style="fill:#33931C;" cx="242.813" cy="201.993" rx="13.157" ry="15.092"/>
						</g>
						<g id="XMLID_66_">
							<path id="XMLID_151_" style="fill:#308215;" d="M167.598,378.662c0,0,20.815,4.734,31.648-8.167l-6.245,15.193
								C193.002,385.689,180.254,395.853,167.598,378.662z"/>
						</g>
						<g id="XMLID_13_">
							<path id="XMLID_81_" style="fill:#97C91F;" d="M272.818,288.856c-0.902-3.251-1.726-6.693-2.47-10.157
								c-0.299-1.392-1.62-2.408-3.019-2.142c-0.003,0.001-0.498,0.156-1.191,0.375c-2.541,0.8-5.025,1.776-7.46,2.86
								c-2.191,0.976-3.691,1.405-6.629,2.106c-4.885,1.165-9.823,1.41-14.824,1.579c-4.098,0.139-7.933-0.198-11.69-0.753
								c-1.362,4.95-3.918,10.209-8.547,14.837c0,0-27.464,32.702-26.758,66.826c-0.005,0.355-0.025,0.707-0.025,1.063
								c0,39.096,30.157,70.788,67.358,70.788c29.002,0,54.215-18.505,62.881-47.402c1.121-2.786,1.771-5.667,2.035-8.615
								c0.007-0.037,0.016-0.074,0.022-0.113c-0.003-0.007-0.006-0.014-0.008-0.021
								C325.356,346.537,277.082,304.207,272.818,288.856z"/>
						</g>
						<g id="XMLID_23_">
							<g id="XMLID_24_">
								<path id="XMLID_80_" style="fill:#FCFCFC;" d="M251.166,208.788c-2.496,7.321-9.275,11.635-15.142,9.635
									c-5.867-1.999-8.601-9.556-6.105-16.876c2.495-7.321,9.274-11.635,15.141-9.635
									C250.927,193.912,253.66,201.467,251.166,208.788z"/>
							</g>
							<g id="XMLID_22_">
								<path id="XMLID_79_" style="fill:#020202;" d="M251.522,206.571c-0.756,5.953-5.235,10.288-10.005,9.682
									c-4.77-0.605-8.025-5.921-7.27-11.873c0.755-5.953,5.234-10.288,10.005-9.683
									C249.022,195.302,252.277,200.618,251.522,206.571z"/>
							</g>
							<g id="XMLID_25_">
								<path id="XMLID_78_" style="fill:#FCFCFC;" d="M247.091,196.883c-0.287,2.261-1.988,3.908-3.8,3.678
									c-1.812-0.229-3.049-2.249-2.762-4.51c0.287-2.261,1.988-3.908,3.8-3.678C246.142,192.602,247.378,194.622,247.091,196.883z
									"/>
							</g>
						</g>
						<g id="XMLID_28_">
							<path id="XMLID_40_" style="fill:#020202;" d="M227.352,241.35c0,4.172-3.096,7.555-6.915,7.555
								c-3.818,0-6.914-3.383-6.914-7.555c0-4.172,3.096-7.555,6.914-7.555C224.255,233.795,227.352,237.178,227.352,241.35z"/>
						</g>
						<g id="XMLID_17_">
							<g id="XMLID_21_">
								<path id="XMLID_77_" style="fill:#DEDC00;" d="M239.915,286.668c-4.527,0-9.479-0.446-14.774-1.57
									c-1.31-0.277-2.147-1.565-1.868-2.877c0.278-1.309,1.564-2.143,2.877-1.868c23.174,4.919,39.502-4.281,39.665-4.375
									c1.16-0.668,2.645-0.27,3.313,0.891c0.669,1.16,0.27,2.643-0.89,3.313C267.664,280.512,256.738,286.668,239.915,286.668z"/>
							</g>
							<g id="XMLID_27_">
								<g id="XMLID_75_">
									<path id="XMLID_76_" style="fill:#DEDC00;" d="M215.635,318.59c-0.284,0-0.573-0.051-0.855-0.156
										c-3.644-1.373-5.624-2.598-5.706-2.649c-1.137-0.709-1.484-2.205-0.775-3.342c0.708-1.135,2.2-1.48,3.336-0.777
										c0.03,0.019,1.719,1.048,4.854,2.228c1.254,0.473,1.887,1.871,1.415,3.126C217.539,317.989,216.615,318.59,215.635,318.59z
										"/>
								</g>
								<g id="XMLID_74_">
									<path id="XMLID_58_" style="fill:#DEDC00;" d="M238.327,322.438c-3.685,0-7.328-0.262-10.831-0.778
										c-1.325-0.196-2.241-1.429-2.045-2.754c0.195-1.325,1.421-2.232,2.753-2.046c3.269,0.483,6.674,0.728,10.122,0.728
										c0.67,0,1.352-0.01,2.044-0.028c1.342-0.052,2.455,1.018,2.492,2.357c0.037,1.339-1.018,2.455-2.357,2.491
										C239.768,322.429,239.041,322.438,238.327,322.438z M252.98,321.098c-1.152,0-2.175-0.823-2.385-1.998
										c-0.236-1.318,0.642-2.579,1.959-2.815c3.919-0.702,7.936-1.699,11.941-2.965c1.279-0.403,2.64,0.306,3.043,1.583
										c0.404,1.276-0.305,2.64-1.582,3.043c-4.202,1.327-8.424,2.375-12.547,3.114
										C253.267,321.085,253.122,321.098,252.98,321.098z"/>
								</g>
								<g id="XMLID_73_">
									<path id="XMLID_57_" style="fill:#DEDC00;" d="M277.04,313.58c-0.931,0-1.819-0.54-2.22-1.446
										c-0.541-1.227,0.015-2.658,1.239-3.198c1.721-0.761,3.462-1.576,5.176-2.426c1.201-0.598,2.657-0.107,3.251,1.094
										c0.595,1.201,0.105,2.656-1.096,3.251c-1.777,0.883-3.586,1.73-5.371,2.518C277.7,313.513,277.367,313.58,277.04,313.58z"
										/>
								</g>
							</g>
							<g id="XMLID_29_">
								<g id="XMLID_72_">
									<path id="XMLID_56_" style="fill:#DEDC00;" d="M200.132,364.27c-0.297,0-0.6-0.056-0.893-0.172
										c-3.489-1.383-5.453-2.372-5.535-2.414c-1.195-0.605-1.672-2.064-1.068-3.258c0.604-1.196,2.061-1.675,3.259-1.07
										c0.018,0.009,1.871,0.94,5.131,2.232c1.245,0.493,1.855,1.903,1.361,3.148C202.011,363.689,201.097,364.27,200.132,364.27z
										"/>
								</g>
								<g id="XMLID_71_">
									<path id="XMLID_51_" style="fill:#DEDC00;" d="M245.022,372.919c-3.016,0-6.095-0.121-9.152-0.361
										c-1.335-0.105-2.333-1.272-2.228-2.607c0.105-1.337,1.277-2.349,2.608-2.228c4.034,0.316,8.017,0.417,12.063,0.297
										c1.315-0.065,2.457,1.013,2.498,2.352c0.041,1.338-1.012,2.456-2.352,2.497
										C247.303,372.902,246.157,372.919,245.022,372.919z M260.663,371.776c-1.182,0-2.217-0.864-2.396-2.067
										c-0.197-1.325,0.717-2.559,2.041-2.757c3.984-0.594,7.94-1.438,11.761-2.505c1.285-0.365,2.628,0.392,2.989,1.683
										c0.36,1.289-0.393,2.628-1.683,2.988c-4.014,1.123-8.17,2.009-12.352,2.632
										C260.901,371.769,260.781,371.776,260.663,371.776z M223.835,370.977c-0.143,0-0.289-0.012-0.436-0.038
										c-4.095-0.742-8.214-1.694-12.241-2.83c-1.289-0.364-2.04-1.704-1.676-2.993c0.364-1.289,1.707-2.034,2.993-1.676
										c3.878,1.094,7.845,2.011,11.788,2.725c1.318,0.238,2.193,1.501,1.954,2.818
										C226.007,370.155,224.985,370.977,223.835,370.977z M284.355,365.137c-0.943,0-1.842-0.555-2.234-1.478
										c-0.522-1.233,0.054-2.658,1.287-3.181c3.659-1.552,7.272-3.364,10.74-5.389c1.156-0.676,2.643-0.284,3.316,0.871
										c0.676,1.157,0.285,2.643-0.871,3.318c-3.645,2.128-7.444,4.034-11.292,5.665
										C284.993,365.074,284.672,365.137,284.355,365.137z"/>
								</g>
								<g id="XMLID_70_">
									<path id="XMLID_50_" style="fill:#DEDC00;" d="M305.632,352.74c-0.731,0-1.455-0.33-1.932-0.957
										c-0.811-1.067-0.604-2.589,0.462-3.399c1.492-1.135,2.984-2.335,4.435-3.567c1.021-0.866,2.551-0.745,3.419,0.278
										c0.867,1.021,0.743,2.552-0.278,3.419c-1.517,1.289-3.078,2.545-4.639,3.731C306.66,352.579,306.144,352.74,305.632,352.74
										z"/>
								</g>
							</g>
							<g id="XMLID_37_">
								<g id="XMLID_69_">
									<path id="XMLID_49_" style="fill:#DEDC00;" d="M208.834,406.233c-0.367,0-0.74-0.085-1.09-0.261
										c-3.368-1.699-5.245-2.943-5.324-2.995c-1.115-0.743-1.417-2.249-0.674-3.363c0.742-1.116,2.247-1.417,3.363-0.675
										c0.068,0.046,1.786,1.172,4.819,2.701c1.196,0.604,1.677,2.061,1.073,3.259
										C210.575,405.744,209.721,406.233,208.834,406.233z"/>
								</g>
								<g id="XMLID_68_">
									<path id="XMLID_42_" style="fill:#DEDC00;" d="M249.577,415.917c-1.392-0.001-2.794-0.034-4.169-0.098
										c-1.338-0.061-2.372-1.196-2.311-2.534c0.063-1.339,1.188-2.381,2.535-2.312c4.07,0.187,8.281,0.082,12.358-0.328
										c1.342-0.136,2.523,0.837,2.655,2.17c0.135,1.332-0.837,2.522-2.169,2.656
										C255.541,415.768,252.547,415.917,249.577,415.917z M232.892,414.332c-0.15,0-0.303-0.014-0.456-0.043
										c-4.249-0.809-8.497-1.921-12.624-3.306c-1.27-0.427-1.954-1.801-1.528-3.071c0.426-1.271,1.804-1.956,3.071-1.527
										c3.919,1.315,7.953,2.371,11.987,3.139c1.315,0.25,2.18,1.52,1.93,2.836C235.05,413.522,234.033,414.332,232.892,414.332z
										 M270.758,413.287c-1.085,0-2.073-0.733-2.351-1.834c-0.327-1.299,0.461-2.617,1.76-2.944
										c3.949-0.996,7.904-2.299,11.755-3.872c1.241-0.503,2.655,0.088,3.162,1.327c0.507,1.24-0.087,2.656-1.327,3.163
										c-4.061,1.659-8.234,3.034-12.405,4.085C271.153,413.262,270.954,413.287,270.758,413.287z M294.273,403.732
										c-0.844,0-1.664-0.44-2.111-1.226c-0.662-1.163-0.256-2.645,0.909-3.308c3.515-2.001,7.024-4.281,10.43-6.779
										c1.082-0.792,2.6-0.559,3.392,0.522c0.792,1.08,0.558,2.598-0.522,3.39c-3.556,2.608-7.224,4.991-10.899,7.084
										C295.092,403.631,294.68,403.732,294.273,403.732z"/>
								</g>
								<g id="XMLID_67_">
									<path id="XMLID_41_" style="fill:#DEDC00;" d="M314.818,388.742c-0.664,0-1.324-0.27-1.804-0.803
										c-0.896-0.996-0.814-2.529,0.181-3.426c1.387-1.247,2.79-2.565,4.173-3.916c0.957-0.935,2.493-0.92,3.43,0.038
										c0.937,0.958,0.919,2.494-0.039,3.431c-1.43,1.397-2.883,2.762-4.318,4.054
										C315.977,388.537,315.396,388.742,314.818,388.742z"/>
								</g>
							</g>
						</g>
						<g id="XMLID_48_">
							<path id="XMLID_39_" style="fill:#97C91F;" d="M280.929,238.121L280.929,238.121c5.42,4.153,13.294,0.738,13.968-6.057
								l0.345-3.487C295.241,228.577,285.805,231.674,280.929,238.121z"/>
						</g>
						<g id="XMLID_61_">
							<path id="XMLID_102_" style="fill:#97C91F;" d="M295.241,228.577l1.956,1.507c3.994,3.081,9.588,2.988,13.478-0.224
								l1.421-1.173C312.097,228.686,305.376,225.077,295.241,228.577z"/>
						</g>
						<g id="XMLID_62_">
							<path id="XMLID_100_" style="fill:#97C91F;" d="M280.929,238.121L280.929,238.121c1.841,6.184,0.313,12.88-4.027,17.655
								l-1.324,1.455C275.577,257.23,273.232,246.834,280.929,238.121z"/>
						</g>
						<g id="XMLID_63_">
							<path id="XMLID_98_" style="fill:#97C91F;" d="M160.815,356.377L160.815,356.377c2.599,2.137,4.636,4.813,6.003,7.798
								c1.967,4.294,1.936,9.241,0.106,13.597l0,0C166.925,377.772,159.445,368.113,160.815,356.377z"/>
						</g>
						<g id="XMLID_64_">
							<path id="XMLID_96_" style="fill:#97C91F;" d="M167.598,378.662l0.949-0.064c7.546-0.519,14.88,2.634,19.696,8.466
								l0.606,0.734C188.85,387.798,178.759,392.821,167.598,378.662z"/>
						</g>
						<g id="XMLID_65_">
							<path id="XMLID_94_" style="fill:#308215;" d="M201.025,250.388c0,0,16.169,11.642,37.836,0
								c21.667-11.642,20.171,28.498,20.171,28.498s-14.007,4.366-24.315,2.911c0,0-6.34-0.564-7.324-1.222
								c0,0-12.449-15.732-20.298-21.546C207.096,259.03,195.892,249.782,201.025,250.388z"/>
						</g>
						<g id="XMLID_38_" style="opacity:0.57;">
							<path id="XMLID_36_" style="fill:#308215;" d="M321.328,239.929c0,0-1.061,64.589-39.015,64.326l12.04,15.841
								c0,0,11.387-7.584,19.724-24.442c8.337-16.859,10.822-23.18,10.054-36.897C323.361,245.039,321.328,239.929,321.328,239.929z
								"/>
						</g>
					</g>
					<path id="XMLID_89_" style="fill:none;stroke:#1D1D1B;stroke-width:3;stroke-miterlimit:10;" d="M0,442.192
						c0,0,81.186-14.64,93.798,0.001c12.612,14.64-57.241,8.99-67.913,20.547c-10.672,11.556,57.85,17.939,94.592,2.7
						c113.157-46.93,114.934-236.192,181.892-238.336c9.865-0.315,18.13,2.189,25.051,6.69"/>
					<path id="XMLID_90_" style="fill:#C6C6C6;" d="M337.395,244.376l-10.628,3.748c-1.328,0.468-2.784-0.229-3.253-1.557
						l-3.178-9.009c-0.468-1.328,0.229-2.784,1.557-3.253l10.628-3.748c1.328-0.468,2.784,0.229,3.253,1.557l3.178,9.009
						C339.419,242.451,338.723,243.907,337.395,244.376z"/>
					<path id="XMLID_92_" style="fill:#F9B233;" d="M323.186,245.638l15.402-5.541l0.449,1.359c0,0,0.33,1.327-0.799,2.421
						l-0.845,0.499l-10.783,3.792c0,0-1.225,0.316-2.349-0.512C324.263,247.656,323.79,247.351,323.186,245.638z"/>
					<path id="XMLID_93_" style="fill:#F9B233;" d="M336.145,233.008l-15.477,5.727l-0.465-1.366c0,0-0.346-1.334,0.783-2.447
						l0.847-0.511l10.835-3.921c0,0,1.232-0.331,2.373,0.494C335.042,230.984,335.521,231.288,336.145,233.008z"/>
				</g>
				<g id="XMLID_108_">
					<path id="XMLID_103_" style="fill:none;stroke:#1D1D1B;stroke-width:3;stroke-miterlimit:10;" d="M500,442.192
						c0,0-81.463-14.64-94.075,0.001c-12.612,14.64,57.24,8.99,67.912,20.547c10.672,11.556-57.85,17.939-94.592,2.7"/>
					<path id="XMLID_104_" style="fill:#C6C6C6;" d="M383.532,465.759c0.247,1.452-0.729,2.831-2.182,3.078
						c-1.452,0.248-2.83-0.729-3.078-2.181c-0.247-1.453,0.73-2.831,2.182-3.08C381.906,463.329,383.285,464.307,383.532,465.759z"
						/>
					<path id="XMLID_95_" style="fill:#C6C6C6;" d="M379.84,472.818l-10.385-1.308c-0.314-0.04-0.538-0.327-0.498-0.642
						l1.563-12.408c0.04-0.314,0.326-0.538,0.642-0.498l10.386,1.309c0.314,0.04,0.537,0.327,0.497,0.642l-1.564,12.408
						C380.441,472.636,380.154,472.858,379.84,472.818z"/>
					<path id="XMLID_105_" style="fill:#A5A5A5;" d="M371.605,464.978c-0.571,3.728-1.783,6.634-2.707,6.493
						c-0.924-0.142-1.209-3.278-0.638-7.006c0.571-3.727,1.783-6.634,2.706-6.492C371.891,458.114,372.177,461.251,371.605,464.978z
						"/>
					<path id="XMLID_107_" style="fill:#C6C6C6;" d="M382.574,466.464c-0.571,3.727-1.783,6.634-2.707,6.492
						c-0.922-0.142-1.208-3.278-0.637-7.005c0.571-3.728,1.782-6.634,2.706-6.493C382.86,459.601,383.145,462.736,382.574,466.464z"
						/>
					<path id="XMLID_106_" style="fill:#575756;" d="M368.895,466.801L368.895,466.801c-0.208-0.04-0.344-0.242-0.305-0.45
						l1.04-5.356c0.039-0.208,0.242-0.344,0.45-0.305l0,0c0.207,0.04,0.344,0.243,0.304,0.45l-1.039,5.358
						C369.305,466.705,369.102,466.842,368.895,466.801z"/>
					<path id="XMLID_109_" style="fill:#575756;" d="M370.067,468.176L370.067,468.176c-0.208-0.04-0.344-0.243-0.304-0.45
						l1.039-5.358c0.041-0.206,0.242-0.344,0.45-0.303l0,0c0.207,0.04,0.344,0.242,0.304,0.45l-1.039,5.357
						C370.477,468.079,370.274,468.216,370.067,468.176z"/>
				</g>
			</g>
			<g id="XMLID_117_">
				<g id="XMLID_115_">
					
						<text id="XMLID_113_" transform="matrix(1 0 0 1 147.3359 96.7808)" style="fill:#487717; font-family:'Baloo'; font-size:112.0209px;">404</text>
					
						<text id="XMLID_112_" transform="matrix(1 0 0 1 188.5981 130.2114)" style="fill:#487717; font-family:'Baloo'; font-size:40.0014px;">ERROR</text>
					<g id="XMLID_146_">
						<text transform="matrix(1 0 0 1 189.771 161.1738)" style="fill:#487717; font-family:'Baloo'; font-size:15.1752px;">PAGE NOT FOUND</text>
					</g>
				</g>
			</g>
		</g>
	</g>
</g>
<g id="DESIGNED_BY_FREEPIK">
	<g id="XMLID_7126_">
		<g id="XMLID_7163_">
			<path id="XMLID_7188_" style="fill:#C6C6C6;" d="M186.001,487.836v-0.147c-0.2,0.228-0.397,0.415-0.591,0.558
				c-0.194,0.145-0.406,0.254-0.633,0.327c-0.227,0.076-0.475,0.112-0.744,0.112c-0.356,0-0.686-0.075-0.99-0.225
				c-0.303-0.151-0.566-0.366-0.788-0.646c-0.222-0.279-0.39-0.608-0.504-0.986c-0.114-0.378-0.171-0.787-0.171-1.227
				c0-0.931,0.227-1.656,0.681-2.176c0.455-0.518,1.052-0.778,1.794-0.778c0.428,0,0.79,0.073,1.084,0.22
				c0.295,0.147,0.582,0.374,0.861,0.679v-2.196c0-0.306,0.061-0.536,0.183-0.692c0.122-0.156,0.295-0.234,0.52-0.234
				c0.226,0,0.398,0.072,0.521,0.215c0.122,0.145,0.183,0.355,0.183,0.636v6.563c0,0.283-0.065,0.495-0.196,0.638
				c-0.131,0.141-0.299,0.212-0.507,0.212c-0.203,0-0.372-0.073-0.504-0.22C186.068,488.317,186.001,488.107,186.001,487.836z
				 M183.074,485.649c0,0.403,0.063,0.747,0.188,1.03c0.126,0.283,0.297,0.497,0.515,0.64c0.218,0.145,0.456,0.217,0.714,0.217
				c0.262,0,0.501-0.068,0.717-0.205c0.216-0.136,0.389-0.346,0.518-0.626c0.129-0.282,0.193-0.635,0.193-1.056
				c0-0.397-0.064-0.737-0.193-1.022c-0.129-0.285-0.303-0.503-0.523-0.654c-0.22-0.15-0.46-0.226-0.722-0.226
				c-0.273,0-0.516,0.077-0.73,0.231c-0.214,0.154-0.38,0.376-0.499,0.665C183.133,484.933,183.074,485.268,183.074,485.649z"/>
			<path id="XMLID_7185_" style="fill:#C6C6C6;" d="M192.563,486.026h-2.911c0.004,0.337,0.072,0.636,0.205,0.893
				c0.132,0.258,0.309,0.452,0.529,0.583c0.22,0.132,0.463,0.196,0.728,0.196c0.178,0,0.34-0.02,0.488-0.063
				c0.147-0.042,0.29-0.106,0.428-0.196c0.138-0.089,0.265-0.185,0.381-0.286c0.116-0.103,0.267-0.241,0.452-0.415
				c0.076-0.065,0.186-0.099,0.328-0.099c0.152,0,0.276,0.043,0.37,0.127c0.094,0.084,0.142,0.201,0.142,0.353
				c0,0.135-0.053,0.291-0.158,0.472c-0.106,0.18-0.265,0.353-0.477,0.518c-0.213,0.166-0.479,0.303-0.802,0.412
				c-0.321,0.109-0.691,0.163-1.109,0.163c-0.955,0-1.699-0.272-2.229-0.817c-0.531-0.545-0.796-1.285-0.796-2.219
				c0-0.439,0.065-0.848,0.196-1.224c0.131-0.376,0.322-0.698,0.573-0.968c0.251-0.268,0.559-0.475,0.927-0.619
				c0.367-0.143,0.774-0.214,1.221-0.214c0.581,0,1.08,0.121,1.496,0.367c0.417,0.245,0.729,0.563,0.936,0.951
				c0.206,0.389,0.311,0.785,0.311,1.188c0,0.375-0.107,0.617-0.321,0.729C193.255,485.97,192.953,486.026,192.563,486.026z
				 M189.653,485.181h2.699c-0.036-0.509-0.174-0.89-0.412-1.142c-0.238-0.253-0.551-0.379-0.94-0.379
				c-0.371,0-0.675,0.128-0.913,0.384C189.849,484.3,189.704,484.68,189.653,485.181z"/>
			<path id="XMLID_7183_" style="fill:#C6C6C6;" d="M199.345,486.739c0,0.411-0.1,0.763-0.3,1.056
				c-0.2,0.292-0.495,0.514-0.886,0.665c-0.391,0.15-0.866,0.225-1.425,0.225c-0.534,0-0.992-0.082-1.374-0.245
				c-0.381-0.163-0.663-0.368-0.845-0.612c-0.182-0.246-0.272-0.492-0.272-0.74c0-0.163,0.058-0.303,0.174-0.419
				c0.116-0.116,0.264-0.174,0.442-0.174c0.156,0,0.275,0.038,0.359,0.114c0.083,0.076,0.163,0.184,0.239,0.321
				c0.153,0.266,0.336,0.463,0.549,0.595c0.212,0.13,0.502,0.195,0.87,0.195c0.298,0,0.542-0.066,0.733-0.198
				c0.19-0.134,0.286-0.285,0.286-0.456c0-0.262-0.099-0.451-0.297-0.571c-0.198-0.12-0.525-0.235-0.979-0.345
				c-0.512-0.126-0.929-0.261-1.251-0.4c-0.322-0.139-0.579-0.324-0.771-0.553c-0.192-0.229-0.289-0.511-0.289-0.845
				c0-0.298,0.089-0.58,0.267-0.846c0.179-0.265,0.441-0.477,0.789-0.635c0.346-0.158,0.765-0.237,1.256-0.237
				c0.385,0,0.732,0.04,1.038,0.12c0.308,0.079,0.564,0.188,0.769,0.322c0.205,0.134,0.361,0.283,0.469,0.446
				c0.107,0.163,0.161,0.323,0.161,0.48c0,0.17-0.057,0.311-0.171,0.419c-0.114,0.108-0.277,0.164-0.488,0.164
				c-0.153,0-0.282-0.044-0.39-0.132c-0.107-0.087-0.229-0.218-0.368-0.392c-0.113-0.146-0.245-0.262-0.398-0.35
				c-0.152-0.087-0.359-0.13-0.622-0.13c-0.269,0-0.492,0.057-0.67,0.172c-0.178,0.113-0.267,0.256-0.267,0.427
				c0,0.157,0.066,0.285,0.196,0.385c0.131,0.101,0.307,0.184,0.529,0.248c0.222,0.065,0.526,0.145,0.916,0.239
				c0.461,0.113,0.838,0.248,1.131,0.404c0.292,0.155,0.514,0.34,0.665,0.553C199.27,486.225,199.345,486.467,199.345,486.739z"/>
			<path id="XMLID_7180_" style="fill:#C6C6C6;" d="M200.865,481.943c-0.207,0-0.384-0.064-0.532-0.191
				c-0.147-0.127-0.221-0.307-0.221-0.54c0-0.211,0.075-0.384,0.226-0.521c0.151-0.137,0.327-0.204,0.526-0.204
				c0.192,0,0.363,0.061,0.512,0.186c0.149,0.123,0.224,0.303,0.224,0.539c0,0.229-0.073,0.408-0.218,0.537
				C201.237,481.878,201.065,481.943,200.865,481.943z M201.601,483.48v4.3c0,0.299-0.071,0.524-0.212,0.677
				c-0.142,0.152-0.322,0.228-0.54,0.228c-0.218,0-0.396-0.078-0.532-0.234c-0.136-0.156-0.204-0.38-0.204-0.671v-4.257
				c0-0.294,0.068-0.516,0.204-0.665c0.136-0.149,0.314-0.224,0.532-0.224c0.218,0,0.398,0.074,0.54,0.224
				C201.53,483.008,201.601,483.215,201.601,483.48z"/>
			<path id="XMLID_7177_" style="fill:#C6C6C6;" d="M208.121,483.726v4.322c0,0.494-0.053,0.92-0.159,1.276
				c-0.105,0.355-0.273,0.65-0.506,0.883c-0.233,0.233-0.537,0.405-0.913,0.518c-0.376,0.113-0.844,0.169-1.404,0.169
				c-0.512,0-0.97-0.071-1.374-0.215c-0.403-0.145-0.714-0.329-0.932-0.557c-0.218-0.227-0.328-0.461-0.328-0.7
				c0-0.182,0.062-0.33,0.186-0.444c0.123-0.114,0.273-0.172,0.447-0.172c0.218,0,0.409,0.097,0.572,0.289
				c0.08,0.098,0.163,0.197,0.248,0.297c0.085,0.101,0.18,0.185,0.283,0.257c0.104,0.07,0.229,0.123,0.374,0.158
				c0.146,0.033,0.313,0.051,0.501,0.051c0.385,0,0.685-0.053,0.897-0.16c0.213-0.107,0.362-0.258,0.447-0.45
				c0.086-0.192,0.135-0.398,0.15-0.618c0.015-0.221,0.025-0.574,0.033-1.061c-0.23,0.321-0.493,0.564-0.794,0.731
				c-0.3,0.167-0.657,0.251-1.071,0.251c-0.498,0-0.933-0.128-1.306-0.382c-0.372-0.255-0.659-0.61-0.858-1.068
				c-0.2-0.459-0.3-0.986-0.3-1.586c0-0.447,0.061-0.852,0.182-1.21c0.122-0.36,0.296-0.664,0.521-0.911
				c0.225-0.247,0.485-0.434,0.779-0.559c0.294-0.125,0.618-0.188,0.97-0.188c0.421,0,0.787,0.081,1.096,0.241
				c0.309,0.163,0.596,0.416,0.861,0.762v-0.202c0-0.258,0.064-0.458,0.19-0.6c0.128-0.142,0.292-0.213,0.491-0.213
				c0.287,0,0.477,0.094,0.572,0.281C208.073,483.103,208.121,483.373,208.121,483.726z M203.809,485.611
				c0,0.604,0.131,1.06,0.395,1.368c0.264,0.31,0.605,0.464,1.023,0.464c0.247,0,0.48-0.066,0.7-0.199
				c0.22-0.133,0.399-0.333,0.538-0.6c0.138-0.267,0.207-0.592,0.207-0.973c0-0.607-0.134-1.08-0.401-1.417
				c-0.268-0.338-0.619-0.508-1.055-0.508c-0.425,0-0.766,0.162-1.021,0.485C203.936,484.556,203.809,485.016,203.809,485.611z"/>
			<path id="XMLID_7175_" style="fill:#C6C6C6;" d="M210.485,483.458v0.18c0.261-0.345,0.548-0.599,0.858-0.761
				c0.311-0.161,0.667-0.242,1.071-0.242c0.393,0,0.743,0.086,1.052,0.257c0.309,0.171,0.54,0.412,0.692,0.724
				c0.099,0.183,0.162,0.379,0.191,0.59c0.029,0.211,0.044,0.479,0.044,0.807v2.769c0,0.299-0.069,0.524-0.205,0.677
				c-0.136,0.152-0.313,0.228-0.531,0.228c-0.222,0-0.402-0.078-0.54-0.234c-0.138-0.156-0.207-0.38-0.207-0.671v-2.479
				c0-0.491-0.068-0.866-0.205-1.126c-0.136-0.26-0.408-0.39-0.815-0.39c-0.265,0-0.507,0.079-0.725,0.236
				c-0.218,0.159-0.378,0.377-0.479,0.652c-0.073,0.222-0.109,0.636-0.109,1.242v1.864c0,0.302-0.07,0.528-0.21,0.68
				c-0.14,0.15-0.32,0.225-0.542,0.225c-0.215,0-0.391-0.078-0.529-0.234c-0.138-0.156-0.207-0.38-0.207-0.671v-4.3
				c0-0.284,0.062-0.496,0.185-0.636c0.124-0.14,0.293-0.21,0.507-0.21c0.131,0,0.25,0.031,0.355,0.093
				c0.105,0.063,0.19,0.155,0.253,0.277C210.454,483.129,210.485,483.28,210.485,483.458z"/>
			<path id="XMLID_7172_" style="fill:#C6C6C6;" d="M219.539,486.026h-2.911c0.004,0.337,0.071,0.636,0.205,0.893
				c0.132,0.258,0.309,0.452,0.529,0.583c0.219,0.132,0.462,0.196,0.727,0.196c0.178,0,0.341-0.02,0.489-0.063
				c0.146-0.042,0.289-0.106,0.428-0.196c0.138-0.089,0.265-0.185,0.382-0.286c0.116-0.103,0.267-0.241,0.452-0.415
				c0.076-0.065,0.185-0.099,0.327-0.099c0.153,0,0.276,0.043,0.371,0.127c0.094,0.084,0.142,0.201,0.142,0.353
				c0,0.135-0.053,0.291-0.158,0.472c-0.105,0.18-0.265,0.353-0.477,0.518c-0.213,0.166-0.479,0.303-0.801,0.412
				c-0.322,0.109-0.691,0.163-1.109,0.163c-0.956,0-1.699-0.272-2.23-0.817c-0.53-0.545-0.795-1.285-0.795-2.219
				c0-0.439,0.066-0.848,0.196-1.224c0.131-0.376,0.322-0.698,0.573-0.968c0.251-0.268,0.56-0.475,0.926-0.619
				c0.367-0.143,0.774-0.214,1.221-0.214c0.582,0,1.08,0.121,1.496,0.367c0.417,0.245,0.728,0.563,0.936,0.951
				c0.207,0.389,0.311,0.785,0.311,1.188c0,0.375-0.107,0.617-0.322,0.729C220.23,485.97,219.928,486.026,219.539,486.026z
				 M216.628,485.181h2.698c-0.036-0.509-0.173-0.89-0.412-1.142c-0.238-0.253-0.551-0.379-0.94-0.379
				c-0.371,0-0.676,0.128-0.914,0.384C216.823,484.3,216.679,484.68,216.628,485.181z"/>
			<path id="XMLID_7169_" style="fill:#C6C6C6;" d="M225.605,487.836v-0.147c-0.2,0.228-0.397,0.415-0.591,0.558
				c-0.194,0.145-0.405,0.254-0.632,0.327c-0.227,0.076-0.475,0.112-0.744,0.112c-0.357,0-0.687-0.075-0.99-0.225
				c-0.303-0.151-0.566-0.366-0.788-0.646c-0.222-0.279-0.39-0.608-0.504-0.986c-0.114-0.378-0.171-0.787-0.171-1.227
				c0-0.931,0.227-1.656,0.681-2.176c0.454-0.518,1.052-0.778,1.794-0.778c0.429,0,0.79,0.073,1.085,0.22
				c0.294,0.147,0.582,0.374,0.861,0.679v-2.196c0-0.306,0.061-0.536,0.183-0.692c0.121-0.156,0.295-0.234,0.521-0.234
				s0.398,0.072,0.52,0.215c0.122,0.145,0.183,0.355,0.183,0.636v6.563c0,0.283-0.065,0.495-0.196,0.638
				c-0.131,0.141-0.299,0.212-0.507,0.212c-0.204,0-0.372-0.073-0.504-0.22C225.672,488.317,225.605,488.107,225.605,487.836z
				 M222.679,485.649c0,0.403,0.062,0.747,0.188,1.03c0.126,0.283,0.297,0.497,0.516,0.64c0.218,0.145,0.456,0.217,0.714,0.217
				c0.262,0,0.501-0.068,0.717-0.205c0.216-0.136,0.389-0.346,0.518-0.626c0.129-0.282,0.194-0.635,0.194-1.056
				c0-0.397-0.064-0.737-0.194-1.022c-0.128-0.285-0.303-0.503-0.523-0.654c-0.22-0.15-0.461-0.226-0.723-0.226
				c-0.272,0-0.516,0.077-0.73,0.231c-0.214,0.154-0.38,0.376-0.499,0.665C222.737,484.933,222.679,485.268,222.679,485.649z"/>
			<path id="XMLID_7166_" style="fill:#C6C6C6;" d="M231.688,481.272v2.272c0.28-0.29,0.565-0.514,0.856-0.668
				c0.291-0.153,0.651-0.23,1.08-0.23c0.494,0,0.927,0.116,1.3,0.351c0.372,0.235,0.661,0.575,0.867,1.02
				c0.205,0.444,0.308,0.974,0.308,1.584c0,0.451-0.058,0.863-0.172,1.24c-0.115,0.376-0.281,0.702-0.499,0.978
				c-0.218,0.276-0.482,0.49-0.793,0.642c-0.311,0.15-0.653,0.225-1.027,0.225c-0.229,0-0.445-0.026-0.646-0.082
				c-0.202-0.054-0.374-0.125-0.516-0.215c-0.141-0.089-0.262-0.181-0.362-0.275c-0.1-0.094-0.232-0.236-0.395-0.425v0.147
				c0,0.279-0.067,0.491-0.202,0.635c-0.134,0.144-0.305,0.215-0.512,0.215c-0.211,0-0.379-0.071-0.504-0.215
				c-0.126-0.144-0.188-0.355-0.188-0.635v-6.499c0-0.301,0.061-0.529,0.182-0.684c0.122-0.154,0.292-0.231,0.51-0.231
				c0.229,0,0.405,0.073,0.529,0.221C231.626,480.79,231.688,480.999,231.688,481.272z M231.759,485.693
				c0,0.593,0.135,1.047,0.406,1.364c0.271,0.319,0.626,0.479,1.066,0.479c0.374,0,0.697-0.162,0.967-0.488
				c0.271-0.325,0.406-0.791,0.406-1.398c0-0.393-0.056-0.73-0.169-1.014c-0.113-0.283-0.272-0.503-0.479-0.657
				c-0.208-0.154-0.449-0.231-0.725-0.231c-0.283,0-0.537,0.077-0.758,0.231c-0.222,0.154-0.396,0.378-0.523,0.671
				C231.823,484.941,231.759,485.29,231.759,485.693z"/>
			<path id="XMLID_7164_" style="fill:#C6C6C6;" d="M238.028,488.871l0.136-0.333l-1.831-4.611
				c-0.113-0.265-0.169-0.458-0.169-0.578c0-0.127,0.033-0.245,0.098-0.354c0.066-0.109,0.155-0.196,0.27-0.262
				c0.115-0.066,0.234-0.099,0.357-0.099c0.214,0,0.376,0.068,0.485,0.204c0.109,0.137,0.205,0.332,0.289,0.586l1.259,3.663
				l1.194-3.406c0.094-0.275,0.18-0.492,0.256-0.649c0.076-0.156,0.157-0.262,0.242-0.315c0.086-0.055,0.207-0.082,0.363-0.082
				c0.113,0,0.221,0.029,0.324,0.09c0.104,0.061,0.184,0.141,0.239,0.243c0.057,0.102,0.085,0.208,0.085,0.321
				c-0.015,0.068-0.038,0.167-0.071,0.295c-0.032,0.126-0.072,0.256-0.119,0.387l-1.94,5.08c-0.168,0.447-0.331,0.798-0.491,1.052
				c-0.16,0.255-0.371,0.451-0.635,0.586c-0.264,0.138-0.619,0.205-1.066,0.205c-0.436,0-0.763-0.047-0.98-0.142
				c-0.219-0.095-0.327-0.268-0.327-0.519c0-0.17,0.051-0.303,0.155-0.395c0.104-0.093,0.257-0.14,0.46-0.14
				c0.08,0,0.159,0.011,0.235,0.033c0.094,0.022,0.176,0.033,0.244,0.033c0.171,0,0.306-0.025,0.404-0.077
				c0.098-0.051,0.186-0.139,0.265-0.265C237.835,489.3,237.926,489.114,238.028,488.871z"/>
		</g>
		<g id="XMLID_7141_">
			<path id="XMLID_7162_" style="fill:#C6C6C6;" d="M259.586,482.764h0.355v-0.447c0-0.467,0.057-0.836,0.176-1.111
				c0.117-0.274,0.318-0.475,0.602-0.6c0.281-0.125,0.666-0.188,1.156-0.188c0.873,0,1.305,0.211,1.305,0.64
				c0,0.137-0.045,0.255-0.139,0.353c-0.088,0.098-0.195,0.147-0.318,0.147c-0.059,0-0.16-0.011-0.303-0.034
				c-0.137-0.02-0.26-0.032-0.357-0.032c-0.27,0-0.441,0.081-0.52,0.238c-0.074,0.158-0.113,0.384-0.113,0.68v0.354h0.363
				c0.568,0,0.85,0.17,0.85,0.514c0,0.241-0.072,0.396-0.225,0.462c-0.15,0.065-0.358,0.099-0.625,0.099h-0.363v3.943
				c0,0.293-0.068,0.517-0.211,0.67c-0.139,0.156-0.318,0.233-0.541,0.233c-0.211,0-0.385-0.077-0.527-0.233
				c-0.141-0.153-0.209-0.377-0.209-0.67v-3.943h-0.41c-0.223,0-0.391-0.049-0.512-0.15c-0.121-0.099-0.182-0.229-0.182-0.389
				C258.838,482.94,259.088,482.764,259.586,482.764"/>
			<path id="XMLID_7161_" style="fill:#C6C6C6;" d="M264.459,486.537v1.244c0,0.301-0.076,0.527-0.215,0.677
				c-0.142,0.152-0.32,0.227-0.537,0.227c-0.221,0-0.397-0.075-0.533-0.229c-0.135-0.151-0.207-0.377-0.207-0.674v-4.146
				c0-0.669,0.242-1.004,0.725-1.004c0.248,0,0.426,0.077,0.535,0.234c0.109,0.157,0.17,0.387,0.182,0.693
				c0.178-0.307,0.359-0.536,0.545-0.693c0.191-0.157,0.438-0.234,0.752-0.234c0.314,0,0.615,0.077,0.91,0.234
				c0.295,0.157,0.441,0.365,0.441,0.623c0,0.18-0.063,0.333-0.188,0.448c-0.125,0.12-0.26,0.179-0.404,0.179
				c-0.057,0-0.189-0.036-0.396-0.104c-0.211-0.064-0.396-0.099-0.553-0.099c-0.219,0-0.398,0.059-0.535,0.171
				c-0.139,0.117-0.248,0.285-0.324,0.509c-0.074,0.227-0.125,0.496-0.156,0.806C264.473,485.711,264.459,486.09,264.459,486.537"/>
			<path id="XMLID_7158_" style="fill:#C6C6C6;" d="M271.301,486.024h-2.912c0.004,0.338,0.07,0.638,0.203,0.895
				c0.135,0.257,0.31,0.451,0.531,0.584c0.221,0.13,0.461,0.194,0.729,0.194c0.178,0,0.34-0.019,0.486-0.064
				c0.147-0.04,0.291-0.106,0.428-0.195c0.139-0.088,0.264-0.183,0.381-0.287c0.117-0.101,0.268-0.239,0.455-0.413
				c0.076-0.065,0.185-0.1,0.324-0.1c0.154,0,0.277,0.043,0.373,0.127c0.096,0.085,0.141,0.201,0.141,0.354
				c0,0.136-0.051,0.292-0.154,0.471c-0.107,0.182-0.266,0.354-0.479,0.52c-0.215,0.164-0.482,0.303-0.803,0.41
				c-0.322,0.109-0.693,0.164-1.109,0.164c-0.959,0-1.701-0.272-2.23-0.816c-0.529-0.546-0.799-1.286-0.799-2.22
				c0-0.439,0.068-0.849,0.199-1.225c0.129-0.377,0.32-0.697,0.574-0.968c0.25-0.271,0.557-0.476,0.926-0.619
				c0.365-0.143,0.771-0.215,1.221-0.215c0.58,0,1.08,0.123,1.496,0.371c0.416,0.242,0.73,0.561,0.936,0.949
				c0.207,0.391,0.31,0.785,0.31,1.19c0,0.372-0.109,0.614-0.322,0.727C271.99,485.969,271.689,486.024,271.301,486.024
				 M268.389,485.179h2.697c-0.035-0.509-0.17-0.89-0.408-1.141c-0.24-0.254-0.551-0.379-0.943-0.379
				c-0.369,0-0.674,0.126-0.912,0.384C268.584,484.3,268.438,484.677,268.389,485.179"/>
			<path id="XMLID_7155_" style="fill:#C6C6C6;" d="M277.492,486.024h-2.912c0.004,0.338,0.072,0.638,0.203,0.895
				c0.133,0.257,0.311,0.451,0.529,0.584c0.219,0.13,0.463,0.194,0.728,0.194c0.178,0,0.342-0.019,0.486-0.064
				c0.148-0.04,0.289-0.106,0.43-0.195c0.139-0.088,0.264-0.183,0.381-0.287c0.115-0.101,0.268-0.239,0.453-0.413
				c0.076-0.065,0.188-0.1,0.326-0.1c0.154,0,0.277,0.043,0.373,0.127c0.094,0.085,0.137,0.201,0.137,0.354
				c0,0.136-0.049,0.292-0.156,0.471c-0.102,0.182-0.262,0.354-0.477,0.52c-0.213,0.164-0.482,0.303-0.801,0.41
				c-0.32,0.109-0.693,0.164-1.109,0.164c-0.957,0-1.699-0.272-2.231-0.816c-0.531-0.546-0.799-1.286-0.799-2.22
				c0-0.439,0.068-0.849,0.201-1.225c0.129-0.377,0.32-0.697,0.57-0.968c0.25-0.271,0.559-0.476,0.928-0.619
				c0.365-0.143,0.775-0.215,1.221-0.215c0.58,0,1.078,0.123,1.5,0.371c0.414,0.242,0.727,0.561,0.932,0.949
				c0.205,0.391,0.313,0.785,0.313,1.19c0,0.372-0.111,0.614-0.322,0.727C278.18,485.969,277.879,486.024,277.492,486.024
				 M274.58,485.179h2.697c-0.035-0.509-0.174-0.89-0.41-1.141c-0.24-0.254-0.551-0.379-0.941-0.379
				c-0.371,0-0.676,0.126-0.914,0.384C274.773,484.3,274.629,484.677,274.58,485.179"/>
			<path id="XMLID_7152_" style="fill:#C6C6C6;" d="M280.752,483.47v0.178c0.279-0.345,0.57-0.598,0.875-0.76
				c0.297-0.163,0.641-0.245,1.023-0.245c0.455,0,0.881,0.119,1.266,0.354c0.385,0.237,0.688,0.583,0.912,1.036
				c0.223,0.457,0.336,0.993,0.336,1.615c0,0.457-0.065,0.879-0.193,1.264c-0.127,0.383-0.307,0.704-0.531,0.964
				c-0.227,0.259-0.492,0.46-0.799,0.601c-0.311,0.138-0.637,0.208-0.99,0.208c-0.424,0-0.783-0.085-1.072-0.257
				c-0.287-0.167-0.563-0.421-0.826-0.749v2.234c0,0.651-0.238,0.981-0.715,0.981c-0.281,0-0.463-0.085-0.557-0.253
				c-0.088-0.171-0.135-0.415-0.135-0.741v-6.424c0-0.284,0.061-0.493,0.184-0.636c0.123-0.137,0.295-0.209,0.508-0.209
				c0.213,0,0.383,0.072,0.514,0.215C280.688,482.992,280.752,483.197,280.752,483.47 M283.67,485.632
				c0-0.393-0.06-0.731-0.182-1.012c-0.119-0.282-0.285-0.498-0.496-0.647c-0.211-0.15-0.449-0.228-0.707-0.228
				c-0.41,0-0.758,0.163-1.039,0.484c-0.281,0.325-0.424,0.801-0.424,1.431c0,0.589,0.141,1.052,0.422,1.381
				c0.279,0.329,0.623,0.493,1.041,0.493c0.246,0,0.477-0.072,0.688-0.214c0.213-0.145,0.381-0.359,0.506-0.647
				C283.605,486.386,283.67,486.038,283.67,485.632"/>
			<path id="XMLID_7149_" style="fill:#C6C6C6;" d="M286.664,481.94c-0.209,0-0.385-0.066-0.531-0.192
				c-0.148-0.128-0.223-0.306-0.223-0.538c0-0.211,0.076-0.384,0.229-0.522c0.15-0.135,0.324-0.204,0.525-0.204
				c0.193,0,0.363,0.061,0.512,0.183c0.148,0.126,0.225,0.307,0.225,0.543c0,0.229-0.072,0.408-0.217,0.537
				C287.037,481.874,286.865,481.94,286.664,481.94 M287.4,483.477v4.306c0,0.296-0.072,0.522-0.213,0.673
				c-0.143,0.154-0.322,0.229-0.541,0.229c-0.217,0-0.393-0.077-0.531-0.233c-0.135-0.158-0.205-0.382-0.205-0.669v-4.263
				c0-0.293,0.07-0.514,0.205-0.663c0.139-0.151,0.314-0.225,0.531-0.225c0.219,0,0.398,0.073,0.541,0.225
				C287.328,483.006,287.4,483.214,287.4,483.477"/>
			<path id="XMLID_7148_" style="fill:#C6C6C6;" d="M292.197,488.006l-1.311-2.162l-0.809,0.763v1.186
				c0,0.286-0.076,0.506-0.227,0.659c-0.148,0.156-0.326,0.233-0.522,0.233c-0.228,0-0.41-0.075-0.539-0.229
				c-0.129-0.151-0.197-0.377-0.197-0.674v-6.35c0-0.329,0.066-0.58,0.189-0.754c0.129-0.175,0.314-0.26,0.547-0.26
				c0.23,0,0.41,0.078,0.545,0.236c0.135,0.155,0.203,0.387,0.203,0.69v3.612l1.674-1.758c0.209-0.216,0.363-0.368,0.475-0.447
				c0.109-0.079,0.24-0.119,0.396-0.119c0.188,0,0.34,0.06,0.467,0.177c0.121,0.119,0.186,0.268,0.186,0.444
				c0,0.218-0.203,0.51-0.605,0.873l-0.791,0.725l1.525,2.401c0.111,0.18,0.195,0.311,0.244,0.404
				c0.049,0.092,0.074,0.184,0.074,0.266c0,0.237-0.064,0.422-0.195,0.56c-0.129,0.136-0.301,0.203-0.508,0.203
				c-0.182,0-0.324-0.047-0.422-0.147C292.5,488.439,292.365,488.261,292.197,488.006"/>
			<path id="XMLID_7147_" style="fill:#C6C6C6;" d="M295.432,488.685c-0.225,0-0.416-0.072-0.58-0.219
				c-0.164-0.143-0.246-0.348-0.246-0.61c0-0.222,0.078-0.413,0.234-0.571c0.158-0.16,0.35-0.24,0.578-0.24
				c0.228,0,0.422,0.08,0.588,0.236c0.16,0.158,0.242,0.352,0.242,0.575c0,0.259-0.082,0.463-0.242,0.607
				C295.84,488.612,295.65,488.685,295.432,488.685"/>
			<path id="XMLID_7146_" style="fill:#C6C6C6;" d="M302.836,486.842c0,0.185-0.057,0.384-0.168,0.594
				c-0.109,0.213-0.279,0.412-0.508,0.603c-0.227,0.191-0.512,0.346-0.857,0.462c-0.346,0.115-0.736,0.176-1.166,0.176
				c-0.922,0-1.641-0.27-2.156-0.805c-0.514-0.537-0.773-1.256-0.773-2.157c0-0.613,0.117-1.151,0.355-1.621
				c0.234-0.468,0.576-0.831,1.023-1.087c0.447-0.258,0.984-0.385,1.604-0.385c0.387,0,0.738,0.057,1.063,0.17
				c0.322,0.111,0.592,0.259,0.818,0.436c0.221,0.18,0.393,0.369,0.51,0.569c0.119,0.201,0.178,0.391,0.178,0.566
				c0,0.177-0.066,0.328-0.197,0.451c-0.135,0.124-0.297,0.186-0.482,0.186c-0.125,0-0.229-0.032-0.311-0.096
				c-0.082-0.064-0.174-0.166-0.273-0.31c-0.184-0.275-0.371-0.483-0.572-0.619c-0.197-0.14-0.447-0.208-0.754-0.208
				c-0.438,0-0.795,0.171-1.065,0.515c-0.268,0.342-0.402,0.815-0.402,1.409c0,0.279,0.035,0.539,0.103,0.772
				c0.068,0.234,0.168,0.435,0.299,0.6c0.133,0.165,0.289,0.29,0.475,0.376c0.186,0.088,0.391,0.129,0.611,0.129
				c0.299,0,0.555-0.068,0.766-0.207c0.217-0.138,0.404-0.349,0.566-0.632c0.092-0.168,0.188-0.298,0.293-0.393
				c0.105-0.094,0.234-0.143,0.387-0.143c0.182,0,0.334,0.071,0.451,0.208C302.773,486.538,302.836,486.688,302.836,486.842"/>
			<path id="XMLID_7143_" style="fill:#C6C6C6;" d="M309.258,485.66c0,0.441-0.07,0.852-0.203,1.227
				c-0.143,0.375-0.34,0.696-0.603,0.964c-0.262,0.27-0.574,0.476-0.936,0.62c-0.367,0.142-0.775,0.215-1.229,0.215
				c-0.451,0-0.857-0.073-1.217-0.22c-0.357-0.143-0.672-0.352-0.934-0.621c-0.264-0.273-0.465-0.593-0.603-0.962
				c-0.131-0.369-0.201-0.777-0.201-1.223c0-0.451,0.07-0.865,0.205-1.239c0.139-0.375,0.338-0.695,0.598-0.96
				c0.258-0.266,0.568-0.469,0.935-0.614c0.369-0.143,0.773-0.215,1.217-0.215c0.451,0,0.859,0.072,1.229,0.22
				c0.365,0.143,0.678,0.353,0.943,0.619c0.262,0.272,0.459,0.591,0.596,0.959C309.189,484.804,309.258,485.211,309.258,485.66
				 M307.764,485.66c0-0.608-0.135-1.08-0.4-1.417c-0.266-0.343-0.625-0.51-1.076-0.51c-0.291,0-0.549,0.075-0.77,0.226
				c-0.223,0.15-0.391,0.373-0.512,0.668c-0.119,0.295-0.182,0.64-0.182,1.033c0,0.389,0.061,0.727,0.178,1.018
				c0.121,0.293,0.289,0.515,0.51,0.669c0.221,0.153,0.479,0.232,0.775,0.232c0.451,0,0.811-0.17,1.076-0.512
				C307.629,486.728,307.764,486.257,307.764,485.66"/>
			<path id="XMLID_7142_" style="fill:#C6C6C6;" d="M314.935,485.769v1.979c0,0.313-0.07,0.546-0.213,0.704
				c-0.143,0.156-0.328,0.234-0.561,0.234c-0.225,0-0.41-0.078-0.545-0.234c-0.143-0.158-0.215-0.391-0.215-0.704v-2.371
				c0-0.375-0.012-0.667-0.035-0.875c-0.027-0.203-0.098-0.376-0.209-0.507c-0.113-0.135-0.291-0.201-0.533-0.201
				c-0.488,0-0.809,0.166-0.963,0.505c-0.154,0.331-0.232,0.811-0.232,1.439v2.01c0,0.309-0.07,0.543-0.209,0.702
				c-0.143,0.157-0.324,0.236-0.553,0.236c-0.227,0-0.412-0.079-0.555-0.236c-0.145-0.159-0.217-0.393-0.217-0.702v-4.258
				c0-0.281,0.064-0.494,0.193-0.638c0.131-0.147,0.301-0.22,0.51-0.22c0.205,0,0.373,0.07,0.512,0.204
				c0.137,0.137,0.203,0.325,0.203,0.564v0.142c0.26-0.308,0.537-0.535,0.83-0.678c0.295-0.149,0.621-0.222,0.983-0.222
				c0.373,0,0.695,0.075,0.963,0.224c0.27,0.149,0.49,0.376,0.666,0.676c0.252-0.304,0.521-0.53,0.809-0.678
				c0.287-0.147,0.605-0.222,0.955-0.222c0.404,0,0.758,0.082,1.053,0.24c0.291,0.16,0.512,0.391,0.658,0.686
				c0.127,0.271,0.189,0.694,0.189,1.272v2.905c0,0.313-0.07,0.546-0.211,0.704c-0.141,0.156-0.33,0.234-0.563,0.234
				c-0.227,0-0.41-0.079-0.553-0.236c-0.145-0.159-0.217-0.393-0.217-0.702v-2.503c0-0.321-0.014-0.576-0.039-0.769
				c-0.027-0.193-0.102-0.355-0.221-0.485c-0.121-0.131-0.305-0.197-0.547-0.197c-0.195,0-0.383,0.06-0.559,0.177
				c-0.176,0.113-0.314,0.273-0.414,0.466C314.992,484.688,314.935,485.132,314.935,485.769"/>
		</g>
		<g id="XMLID_7127_">
			<path id="XMLID_7140_" style="fill:#C6C6C6;" d="M245.659,485.299c-0.002-0.002-0.002-0.005-0.002-0.01
				C245.657,485.294,245.657,485.297,245.659,485.299z"/>
			<path id="XMLID_7139_" style="fill:#C6C6C6;" d="M245.733,485.775c0.002,0,0.002,0,0.002,0c-0.028-0.136-0.051-0.27-0.068-0.403
				C245.684,485.506,245.706,485.642,245.733,485.775z"/>
			<path id="XMLID_7138_" style="fill:#C6C6C6;" d="M246.226,487.156c-0.004-0.006-0.006-0.013-0.01-0.02
				C246.22,487.144,246.222,487.15,246.226,487.156z"/>
			<path id="XMLID_7137_" style="fill:#C6C6C6;" d="M246.179,487.065c-0.014-0.025-0.025-0.052-0.038-0.077
				C246.154,487.015,246.165,487.039,246.179,487.065z"/>
			<path id="XMLID_7136_" style="fill:#C6C6C6;" d="M245.872,486.307c0.073,0.23,0.161,0.453,0.263,0.665
				c-0.104-0.217-0.189-0.44-0.261-0.665H245.872z"/>
			<path id="XMLID_7135_" style="fill:#C6C6C6;" d="M251.42,479.597c0.287,0,0.5,0.022,0.742,0.063l0.068-0.438
				c0,0-0.672-0.207-1.555-0.135l-0.069-0.238c0.274-0.058,0.482-0.302,0.482-0.594c0-0.334-0.273-0.604-0.608-0.604
				c-0.334,0-0.605,0.271-0.605,0.604c0,0.292,0.206,0.536,0.48,0.594l0.077,0.266c-0.939,0.129-1.685,0.495-1.685,0.495
				l0.132,0.404c0.567-0.188,1.06-0.304,1.507-0.352C250.822,479.616,251.15,479.597,251.42,479.597z"/>
			<path id="XMLID_7134_" style="fill:#C6C6C6;" d="M246.214,481.81l0.004-0.004c0.022-0.029,0.043-0.056,0.064-0.082l-0.179-0.13
				l-0.28-0.204c-0.016,0.022-0.456,0.427-0.805,1.175c-0.015-0.023-0.032-0.046-0.052-0.068c-0.104-0.113-0.25-0.172-0.435-0.168
				c-0.003,0-0.006,0-0.009,0c-0.114,0-0.193-0.038-0.245-0.085c0.052-0.065,0.082-0.146,0.082-0.237
				c0-0.211-0.172-0.384-0.384-0.384c-0.212,0-0.384,0.173-0.384,0.384c0,0.213,0.172,0.384,0.384,0.384
				c0.033,0,0.065-0.005,0.096-0.012c0.095,0.105,0.244,0.196,0.464,0.191c0.112-0.001,0.195,0.028,0.251,0.09
				c0.063,0.069,0.085,0.17,0.092,0.245c-0.001,0.001-0.001,0.003-0.002,0.003c-0.25,0.683-0.179,1.532-0.179,1.532l0.606,0.024
				c0.013-0.31,0.057-0.851,0.214-1.28C245.821,482.353,246.2,481.833,246.214,481.81z"/>
			<path id="XMLID_7133_" style="fill:#C6C6C6;" d="M256.699,480.103c-0.211,0-0.385,0.172-0.385,0.384
				c0,0.033,0.006,0.064,0.014,0.095c-0.105,0.096-0.197,0.246-0.193,0.466c0.002,0.113-0.027,0.194-0.088,0.25
				c-0.049,0.043-0.109,0.066-0.17,0.081c-0.451-0.633-1.008-1.02-1.008-1.02l-0.436,0.468c0.328,0.299,0.666,0.674,0.992,1.142
				c0.225,0.323,0.459,0.74,0.652,1.156l0.588-0.279c0,0-0.27-0.663-0.646-1.258c0.065-0.022,0.131-0.059,0.19-0.11
				c0.115-0.104,0.172-0.25,0.168-0.435c0-0.119,0.039-0.2,0.086-0.253c0.064,0.05,0.147,0.081,0.236,0.081
				c0.213,0,0.385-0.172,0.385-0.384C257.084,480.275,256.912,480.103,256.699,480.103z"/>
			<path id="XMLID_7132_" style="fill:#C6C6C6;" d="M255.174,485.385c-0.809,0.395-2.141,0.915-3.893,1.159
				c-0.687,0.096-1.354,0.131-1.967,0.131c-0.798,0-1.503-0.06-2.044-0.128c-0.618-0.078-1.101-0.173-1.397-0.24
				c0.071,0.226,0.157,0.448,0.261,0.665c0.002,0.006,0.004,0.012,0.007,0.016c0.013,0.025,0.024,0.052,0.038,0.077
				c0.012,0.025,0.024,0.05,0.037,0.072c0.004,0.007,0.006,0.014,0.01,0.02c0.174,0.327,0.383,0.628,0.62,0.889
				c0.826,0.904,1.668,1.047,1.677,1.049l0.013,0.001l0.013,0.005c0.007,0.003,0.754,0.243,1.889,0.243
				c1.116,0,2.213-0.225,3.256-0.669c0.773-0.396,1.506-0.997,1.867-1.533c0.281-0.414,0.482-0.856,0.604-1.316
				c0.063-0.244,0.113-0.636,0.084-1.047C256.021,484.93,255.66,485.147,255.174,485.385z"/>
			<path id="XMLID_7128_" style="fill:#C6C6C6;" d="M246.474,482.003c-0.023,0.034-0.374,0.53-0.651,1.293
				c-0.207,0.571-0.198,1.402-0.198,1.411v0.002c0,0.195,0.011,0.389,0.032,0.58c0,0.005,0,0.008,0.002,0.01
				c0.002,0.025,0.006,0.049,0.008,0.073c0.018,0.133,0.04,0.267,0.068,0.403c0.402,0.102,2.8,0.661,5.48,0.288
				c1.68-0.234,2.955-0.73,3.73-1.107c0.643-0.311,1.057-0.595,1.217-0.71c-0.16-0.591-0.598-1.516-1-2.093
				c-1.15-1.645-2.393-2.066-3.029-2.172c-0.244-0.04-0.438-0.063-0.713-0.063c-0.258,0-0.576,0.021-1.001,0.066
				c-0.427,0.044-0.902,0.156-1.453,0.342c-0.773,0.259-1.474,0.665-2.024,1.176l-0.018,0.017
				C246.84,481.595,246.67,481.753,246.474,482.003z M253.516,481.62c0.553,0,1.002,0.448,1.002,1c0,0.552-0.449,1.001-1.002,1.001
				c-0.551,0-1-0.449-1-1.001C252.516,482.068,252.965,481.62,253.516,481.62z M248.787,481.58c0.893,0,1.616,0.724,1.616,1.617
				c0,0.893-0.724,1.615-1.616,1.615c-0.893,0-1.616-0.723-1.616-1.615C247.17,482.304,247.894,481.58,248.787,481.58z"/>
		</g>
	</g>
</g>
</svg>
